<svg xmlns="http://www.w3.org/2000/svg" xmlns:xlink="http://www.w3.org/1999/xlink" version="1.1" width="256" height="256" viewBox="0 0 256 256" xml:space="preserve">

<defs>
</defs>
<g style="stroke: none; stroke-width: 0; stroke-dasharray: none; stroke-linecap: butt; stroke-linejoin: miter; stroke-miterlimit: 10; fill: none; fill-rule: nonzero; opacity: 1;" transform="translate(1.4065934065934016 1.4065934065934016) scale(2.81 2.81)" >
	<path d="M 65.845 0.55 c -0.57 -0.696 -1.752 -0.696 -2.322 0 c -7.067 8.637 -17.021 29.795 -17.021 49.795 c 0 10.026 8.156 18.183 18.183 18.183 s 18.183 -8.156 18.183 -18.183 C 82.866 30.343 72.912 9.186 65.845 0.55 z" style="stroke: none; stroke-width: 1; stroke-dasharray: none; stroke-linecap: butt; stroke-linejoin: miter; stroke-miterlimit: 10; fill: rgb(153,213,59); fill-rule: nonzero; opacity: 1;" transform=" matrix(1 0 0 1 0 0) " stroke-linecap="round" />
	<path d="M 64.684 90 c -0.828 0 -1.5 -0.672 -1.5 -1.5 V 36.633 c 0 -0.829 0.672 -1.5 1.5 -1.5 s 1.5 0.671 1.5 1.5 V 88.5 C 66.184 89.328 65.512 90 64.684 90 z" style="stroke: none; stroke-width: 1; stroke-dasharray: none; stroke-linecap: butt; stroke-linejoin: miter; stroke-miterlimit: 10; fill: rgb(133,186,50); fill-rule: nonzero; opacity: 1;" transform=" matrix(1 0 0 1 0 0) " stroke-linecap="round" />
	<path d="M 64.684 60.186 c -0.384 0 -0.768 -0.146 -1.061 -0.439 c -0.586 -0.586 -0.586 -1.535 0 -2.121 l 6.273 -6.272 c 0.586 -0.586 1.535 -0.586 2.121 0 s 0.586 1.535 0 2.121 l -6.273 6.272 C 65.451 60.039 65.067 60.186 64.684 60.186 z" style="stroke: none; stroke-width: 1; stroke-dasharray: none; stroke-linecap: butt; stroke-linejoin: miter; stroke-miterlimit: 10; fill: rgb(133,186,50); fill-rule: nonzero; opacity: 1;" transform=" matrix(1 0 0 1 0 0) " stroke-linecap="round" />
	<path d="M 64.684 52.998 c -0.384 0 -0.768 -0.146 -1.061 -0.439 l -6.272 -6.272 c -0.586 -0.586 -0.586 -1.536 0 -2.122 c 0.586 -0.586 1.535 -0.586 2.121 0 l 6.272 6.273 c 0.586 0.586 0.586 1.535 0 2.121 C 65.451 52.852 65.067 52.998 64.684 52.998 z" style="stroke: none; stroke-width: 1; stroke-dasharray: none; stroke-linecap: butt; stroke-linejoin: miter; stroke-miterlimit: 10; fill: rgb(133,186,50); fill-rule: nonzero; opacity: 1;" transform=" matrix(1 0 0 1 0 0) " stroke-linecap="round" />
	<path d="M 47.851 25.509 c 1.125 -2.38 1.715 -4.993 1.715 -7.627 C 49.565 8.022 41.544 0 31.684 0 S 13.802 8.022 13.802 17.882 c 0 2.635 0.59 5.247 1.715 7.627 c -5.343 4.671 -8.383 11.334 -8.383 18.468 c 0 13.537 11.013 24.55 24.55 24.55 s 24.55 -11.014 24.55 -24.55 C 56.234 36.843 53.194 30.18 47.851 25.509 z" style="stroke: none; stroke-width: 1; stroke-dasharray: none; stroke-linecap: butt; stroke-linejoin: miter; stroke-miterlimit: 10; fill: rgb(188,234,115); fill-rule: nonzero; opacity: 1;" transform=" matrix(1 0 0 1 0 0) " stroke-linecap="round" />
	<path d="M 31.684 90 c -0.829 0 -1.5 -0.672 -1.5 -1.5 V 32.633 c 0 -0.829 0.671 -1.5 1.5 -1.5 s 1.5 0.671 1.5 1.5 V 88.5 C 33.184 89.328 32.513 90 31.684 90 z" style="stroke: none; stroke-width: 1; stroke-dasharray: none; stroke-linecap: butt; stroke-linejoin: miter; stroke-miterlimit: 10; fill: rgb(163,204,98); fill-rule: nonzero; opacity: 1;" transform=" matrix(1 0 0 1 0 0) " stroke-linecap="round" />
	<path d="M 31.684 56.186 c -0.384 0 -0.768 -0.146 -1.061 -0.439 c -0.586 -0.586 -0.586 -1.535 0 -2.121 l 6.272 -6.272 c 0.586 -0.586 1.535 -0.586 2.121 0 s 0.586 1.535 0 2.121 l -6.272 6.272 C 32.452 56.039 32.068 56.186 31.684 56.186 z" style="stroke: none; stroke-width: 1; stroke-dasharray: none; stroke-linecap: butt; stroke-linejoin: miter; stroke-miterlimit: 10; fill: rgb(163,204,98); fill-rule: nonzero; opacity: 1;" transform=" matrix(1 0 0 1 0 0) " stroke-linecap="round" />
	<path d="M 31.684 48.998 c -0.384 0 -0.768 -0.146 -1.061 -0.439 l -6.273 -6.273 c -0.586 -0.585 -0.586 -1.536 0 -2.121 c 0.586 -0.586 1.535 -0.586 2.121 0 l 6.273 6.273 c 0.586 0.586 0.586 1.535 0 2.121 C 32.452 48.852 32.068 48.998 31.684 48.998 z" style="stroke: none; stroke-width: 1; stroke-dasharray: none; stroke-linecap: butt; stroke-linejoin: miter; stroke-miterlimit: 10; fill: rgb(163,204,98); fill-rule: nonzero; opacity: 1;" transform=" matrix(1 0 0 1 0 0) " stroke-linecap="round" />
	<path d="M 81.963 88.5 c -0.451 -3.075 -3.091 -5.437 -6.291 -5.437 c -0.117 0 -0.232 0.011 -0.348 0.018 c -0.654 -2.821 -3.177 -4.926 -6.196 -4.926 c -0.981 0 -1.906 0.228 -2.736 0.625 c -1.115 -1.843 -3.133 -3.079 -5.444 -3.079 c -3.303 0 -6.018 2.516 -6.334 5.737 c -0.07 -0.002 -0.139 -0.011 -0.21 -0.011 c -3.516 0 -6.366 2.85 -6.366 6.366 c 0 0.239 0.016 0.475 0.041 0.707 H 81.963 z" style="stroke: none; stroke-width: 1; stroke-dasharray: none; stroke-linecap: butt; stroke-linejoin: miter; stroke-miterlimit: 10; fill: rgb(28,165,111); fill-rule: nonzero; opacity: 1;" transform=" matrix(1 0 0 1 0 0) " stroke-linecap="round" />
	<path d="M 81.963 90 H 48.079 c -0.763 0 -1.404 -0.573 -1.49 -1.331 c -0.033 -0.288 -0.052 -0.579 -0.052 -0.876 c 0 -3.982 2.975 -7.283 6.819 -7.797 c 0.91 -3.381 3.973 -5.796 7.591 -5.796 c 2.344 0 4.504 1.017 5.986 2.77 c 0.712 -0.21 1.446 -0.315 2.194 -0.315 c 3.273 0 6.127 1.982 7.302 4.945 c 3.541 0.348 6.492 3.104 7.018 6.683 c 0.063 0.432 -0.064 0.868 -0.35 1.198 C 82.813 89.811 82.398 90 81.963 90 z M 49.602 87 h 30.276 c -0.851 -1.463 -2.439 -2.438 -4.206 -2.438 L 75.4 84.578 c -0.725 0.021 -1.373 -0.452 -1.537 -1.159 c -0.515 -2.217 -2.462 -3.765 -4.735 -3.765 c -0.722 0 -1.425 0.161 -2.09 0.479 c -0.698 0.334 -1.53 0.082 -1.93 -0.577 c -0.893 -1.475 -2.448 -2.355 -4.161 -2.355 c -2.515 0 -4.596 1.885 -4.841 4.384 c -0.078 0.792 -0.77 1.388 -1.556 1.353 c -0.015 -0.001 -0.114 -0.01 -0.126 -0.008 C 51.99 82.929 49.981 84.693 49.602 87 z" style="stroke: none; stroke-width: 1; stroke-dasharray: none; stroke-linecap: butt; stroke-linejoin: miter; stroke-miterlimit: 10; fill: rgb(28,165,111); fill-rule: nonzero; opacity: 1;" transform=" matrix(1 0 0 1 0 0) " stroke-linecap="round" />
	<path d="M 8.037 88.5 c 0.367 -2.507 2.52 -4.433 5.129 -4.433 c 0.096 0 0.189 0.009 0.284 0.014 c 0.533 -2.3 2.59 -4.016 5.052 -4.016 c 0.8 0 1.554 0.186 2.231 0.509 c 0.909 -1.502 2.554 -2.51 4.439 -2.51 c 2.693 0 4.907 2.052 5.165 4.677 c 0.057 -0.002 0.113 -0.009 0.171 -0.009 c 2.867 0 5.19 2.324 5.19 5.19 c 0 0.195 -0.013 0.387 -0.034 0.577 H 8.037 z" style="stroke: none; stroke-width: 1; stroke-dasharray: none; stroke-linecap: butt; stroke-linejoin: miter; stroke-miterlimit: 10; fill: rgb(28,165,111); fill-rule: nonzero; opacity: 1;" transform=" matrix(1 0 0 1 0 0) " stroke-linecap="round" />
	<path d="M 35.664 90 H 8.038 c -0.436 0 -0.85 -0.189 -1.135 -0.52 c -0.285 -0.329 -0.413 -0.767 -0.35 -1.198 c 0.438 -2.987 2.864 -5.302 5.802 -5.666 c 1.035 -2.434 3.42 -4.051 6.147 -4.051 c 0.577 0 1.144 0.073 1.695 0.22 c 1.256 -1.408 3.042 -2.221 4.975 -2.221 c 3.015 0 5.576 1.971 6.407 4.754 c 3.182 0.515 5.619 3.28 5.619 6.604 c 0 0.251 -0.016 0.499 -0.043 0.742 C 37.07 89.425 36.428 90 35.664 90 z M 10.261 87 h 23.819 c -0.411 -1.59 -1.857 -2.768 -3.574 -2.768 l -0.12 0.008 c -0.779 0.06 -1.466 -0.564 -1.543 -1.353 c -0.186 -1.895 -1.765 -3.323 -3.672 -3.323 c -1.298 0 -2.478 0.668 -3.155 1.786 c -0.399 0.66 -1.233 0.91 -1.93 0.577 c -0.503 -0.24 -1.037 -0.362 -1.584 -0.362 c -1.725 0 -3.201 1.174 -3.59 2.854 c -0.164 0.709 -0.825 1.194 -1.539 1.159 c -0.013 0 -0.118 -0.007 -0.131 -0.008 C 12.026 85.571 10.948 86.128 10.261 87 z" style="stroke: none; stroke-width: 1; stroke-dasharray: none; stroke-linecap: butt; stroke-linejoin: miter; stroke-miterlimit: 10; fill: rgb(28,165,111); fill-rule: nonzero; opacity: 1;" transform=" matrix(1 0 0 1 0 0) " stroke-linecap="round" />
	<path d="M 88.441 90 H 1.558 c -0.829 0 -1.5 -0.672 -1.5 -1.5 s 0.671 -1.5 1.5 -1.5 h 86.883 c 0.828 0 1.5 0.672 1.5 1.5 S 89.27 90 88.441 90 z" style="stroke: none; stroke-width: 1; stroke-dasharray: none; stroke-linecap: butt; stroke-linejoin: miter; stroke-miterlimit: 10; fill: rgb(153,213,59); fill-rule: nonzero; opacity: 1;" transform=" matrix(1 0 0 1 0 0) " stroke-linecap="round" />
</g>
</svg>